<?xml version="1.0" standalone="no"?>
<!DOCTYPE svg PUBLIC "-//W3C//DTD SVG 20010904//EN"
 "http://www.w3.org/TR/2001/REC-SVG-20010904/DTD/svg10.dtd">
<svg version="1.0" xmlns="http://www.w3.org/2000/svg"
 width="800.000000pt" height="800.000000pt" viewBox="0 0 800.000000 800.000000"
 preserveAspectRatio="xMidYMid meet">
<metadata>
Created by potrace 1.11, written by Peter Selinger 2001-2013
</metadata>
<g transform="translate(0.000000,800.000000) scale(0.100000,-0.100000)"
fill="#000000" stroke="none">
<path d="M3607 7234 c-1 -1 -48 -4 -104 -8 -56 -3 -113 -8 -125 -11 -13 -3
-39 -7 -58 -9 -19 -3 -46 -7 -60 -10 -14 -2 -46 -7 -71 -10 -26 -4 -67 -12
-93 -20 -25 -8 -46 -12 -46 -10 0 2 -18 -3 -39 -11 -22 -7 -42 -11 -45 -8 -3
4 -6 2 -6 -3 0 -5 -9 -10 -21 -11 -22 -2 -107 -28 -154 -48 -16 -7 -57 -23
-90 -35 -81 -31 -359 -169 -363 -181 -2 -5 -8 -9 -14 -9 -12 0 -225 -142 -256
-170 -12 -11 -25 -20 -31 -20 -5 0 -11 -3 -13 -8 -2 -4 -30 -30 -63 -57 -60
-50 -233 -220 -290 -285 -34 -38 -99 -121 -130 -164 -11 -16 -25 -33 -30 -40
-15 -16 -108 -163 -141 -221 -15 -27 -31 -52 -35 -55 -3 -3 -10 -16 -14 -30
-4 -14 -13 -32 -20 -40 -8 -8 -15 -19 -16 -25 -1 -5 -14 -37 -30 -70 -34 -74
-80 -183 -84 -204 -2 -9 -13 -41 -24 -71 -45 -123 -100 -359 -116 -495 -3 -27
-8 -63 -10 -80 -4 -24 -10 -124 -15 -250 0 -6 -40 -38 -89 -73 -105 -74 -230
-196 -312 -303 -32 -43 -59 -80 -59 -83 0 -3 -12 -22 -26 -43 -76 -112 -170
-369 -189 -518 -3 -22 -8 -60 -12 -85 -8 -59 -9 -247 0 -335 11 -121 39 -244
84 -375 39 -113 155 -349 176 -358 4 -2 7 -8 7 -14 0 -6 10 -23 22 -38 13 -16
39 -50 58 -77 51 -70 135 -160 222 -238 71 -63 87 -76 187 -142 133 -88 244
-141 401 -191 83 -26 133 -38 240 -56 149 -26 563 -27 696 -2 15 3 102 15 159
22 6 0 26 4 45 8 19 4 42 8 50 10 76 14 103 20 155 33 33 8 69 17 80 19 11 2
29 6 40 8 27 6 202 58 295 88 41 13 81 23 88 22 6 -1 20 -2 30 -3 16 -1 16 -2
-1 -12 -11 -6 -24 -12 -30 -14 -14 -2 -42 -13 -72 -25 -49 -21 -394 -128 -430
-133 -11 -1 -24 -5 -30 -8 -11 -7 -149 -38 -193 -44 -15 -2 -28 -4 -29 -6 -4
-2 -12 -4 -68 -14 -27 -4 -54 -9 -60 -10 -5 -1 -35 -6 -65 -10 -30 -4 -64 -9
-75 -10 -95 -17 -424 -24 -575 -12 -207 16 -379 52 -548 113 -104 37 -342 153
-342 166 0 4 -7 8 -15 8 -8 0 -15 5 -15 10 0 6 -6 10 -13 10 -7 0 -28 13 -47
30 -19 16 -40 29 -47 30 -6 0 -13 3 -15 8 -1 4 -32 31 -68 61 -85 71 -199 188
-272 280 -32 40 -58 69 -58 63 0 -6 4 -13 9 -16 5 -3 21 -29 36 -58 15 -29 36
-64 46 -77 11 -13 19 -29 19 -37 0 -7 3 -14 8 -16 4 -1 28 -32 54 -68 180
-252 430 -466 691 -590 94 -45 246 -105 291 -115 10 -3 33 -9 50 -14 40 -13
161 -37 271 -55 127 -20 446 -26 605 -11 114 10 135 13 135 14 0 1 21 4 46 6
25 2 59 6 75 9 16 3 47 8 69 11 22 4 60 11 85 17 25 5 56 12 70 14 20 4 119
27 210 49 152 37 525 159 685 224 54 22 100 39 102 38 5 -6 -320 -174 -467
-241 -99 -46 -208 -93 -230 -101 -16 -6 -49 -19 -77 -31 -17 -8 -37 -14 -45
-14 -8 0 -18 -4 -24 -8 -8 -8 -218 -80 -249 -86 -5 -2 -30 -9 -55 -16 -25 -7
-48 -13 -52 -12 -5 1 -8 -3 -8 -8 0 -6 8 -10 18 -11 9 0 26 -2 37 -4 23 -4 89
-14 125 -19 157 -21 566 -28 720 -12 41 4 89 9 105 11 35 3 94 12 185 27 36 5
76 12 90 14 19 3 176 43 265 67 180 51 327 106 514 193 51 24 97 44 102 44 5
0 9 5 9 10 0 6 9 10 19 10 11 0 21 3 23 8 2 4 23 18 48 31 25 13 76 43 113 65
37 23 77 45 87 51 11 5 20 13 20 17 0 5 5 8 10 8 6 0 16 5 23 10 7 6 41 31 77
57 184 130 356 284 560 502 33 36 179 219 211 266 19 28 36 52 39 55 14 13
123 186 176 280 86 153 235 483 223 495 -5 4 -50 -11 -104 -35 -16 -7 -43 -19
-60 -26 -16 -7 -56 -24 -89 -38 -69 -31 -67 -30 -60 -11 4 8 10 15 14 15 5 0
37 13 72 29 121 56 154 69 273 116 120 47 399 142 439 150 12 2 21 4 21 5 0 1
7 3 15 5 8 1 35 8 60 16 25 7 52 14 60 15 8 2 58 13 110 24 52 12 104 22 115
24 75 12 134 20 158 20 15 1 27 3 27 6 0 3 15 6 33 6 45 2 201 13 207 15 3 0
34 1 70 1 99 0 31 16 -105 25 -187 11 -569 4 -595 -12 -3 -1 -30 -6 -61 -9
-31 -4 -66 -8 -77 -11 -11 -2 -36 -6 -56 -9 -19 -3 -57 -11 -83 -17 -27 -6
-59 -13 -73 -15 -14 -3 -43 -10 -65 -16 -22 -5 -41 -10 -42 -9 -2 0 -21 -6
-43 -14 -22 -8 -43 -14 -45 -14 -11 1 -240 -73 -250 -81 -12 -9 -55 -20 -55
-14 0 3 11 30 24 62 13 31 29 75 35 97 7 22 16 49 21 60 10 22 28 82 35 111 2
10 15 63 29 118 14 54 28 115 31 135 3 20 8 48 10 61 26 133 38 502 21 665 -8
84 -21 171 -26 185 -1 3 -2 8 -1 12 1 8 -17 99 -34 176 -3 12 -7 31 -10 42
-11 53 -101 321 -126 378 -53 119 -121 255 -158 317 -23 37 -41 69 -41 72 0 5
-118 179 -141 207 -154 197 -310 357 -467 483 -93 75 -274 203 -286 203 -3 0
-29 15 -58 34 -51 32 -241 128 -303 153 -135 54 -195 75 -286 102 -113 33
-250 66 -314 75 -22 4 -53 8 -70 11 -127 20 -227 27 -378 30 -75 1 -138 1
-140 -1z m348 -78 c118 -9 151 -14 245 -31 127 -22 141 -25 185 -36 22 -6 51
-13 65 -16 14 -2 32 -7 40 -10 8 -3 20 -7 27 -9 20 -4 87 -25 108 -34 11 -4
58 -22 105 -40 103 -39 273 -119 355 -167 76 -45 216 -135 231 -148 6 -5 22
-17 34 -25 12 -8 47 -35 78 -60 32 -25 68 -54 82 -65 40 -33 262 -257 298
-302 32 -39 59 -73 81 -99 21 -26 121 -174 160 -238 142 -231 241 -469 309
-741 30 -117 36 -148 48 -230 3 -22 7 -47 10 -55 17 -50 24 -469 10 -605 -10
-108 -14 -138 -20 -170 -4 -16 -9 -46 -12 -65 -10 -65 -55 -235 -92 -345 -20
-60 -36 -112 -37 -115 -1 -3 -8 -21 -17 -41 -9 -20 -18 -44 -22 -55 -4 -12
-29 -28 -68 -44 -68 -26 -464 -194 -544 -231 -27 -12 -85 -39 -129 -59 -194
-90 -632 -277 -667 -285 -9 -2 -38 -13 -63 -24 -25 -11 -45 -17 -45 -14 0 3
-6 1 -12 -4 -7 -6 -44 -20 -83 -32 -38 -12 -77 -25 -85 -28 -8 -3 -19 -7 -25
-9 -178 -53 -290 -83 -294 -79 -7 8 -7 815 0 826 3 6 11 3 19 -6 7 -8 19 -15
26 -15 8 0 14 -4 14 -10 0 -5 4 -10 10 -10 8 0 52 -25 235 -131 28 -17 61 -35
75 -42 14 -6 27 -14 30 -17 3 -3 64 -39 135 -79 72 -41 137 -80 145 -87 8 -7
20 -14 25 -15 6 -1 27 -13 48 -26 33 -21 40 -22 52 -9 8 8 15 16 15 19 0 2 61
109 136 238 75 129 147 252 159 274 13 22 46 80 74 129 29 49 50 90 49 91 -5
5 -153 91 -168 98 -8 4 -28 16 -45 27 -16 10 -41 25 -55 33 -34 19 -526 304
-550 319 -25 16 -25 24 -2 32 17 6 206 126 229 146 7 5 16 10 21 10 4 0 17 8
28 18 10 10 26 21 34 25 8 4 27 15 42 25 81 52 256 164 345 222 l101 66 -63
99 c-35 55 -69 105 -74 112 -6 6 -20 28 -31 47 -11 20 -42 70 -70 112 -27 41
-50 79 -50 84 0 5 -4 10 -8 12 -4 2 -45 63 -91 136 -46 72 -89 132 -96 132 -8
0 -89 -50 -182 -110 -92 -61 -175 -114 -183 -118 -14 -7 -70 -42 -280 -179
-70 -46 -96 -59 -100 -48 -3 8 -5 208 -5 445 l1 430 -442 0 c-415 0 -443 -1
-443 -17 0 -10 -1 -38 -1 -63 -1 -25 -1 -49 0 -55 1 -5 1 -14 0 -20 -2 -12 -2
-71 1 -168 0 -37 -1 -70 -4 -73 -2 -3 -1 -20 3 -39 4 -19 5 -36 2 -39 -3 -3
-5 -27 -4 -53 0 -27 2 -79 3 -116 0 -37 -1 -70 -4 -73 -2 -3 -1 -20 3 -39 4
-19 5 -37 2 -40 -3 -3 -5 -34 -4 -70 1 -36 0 -65 -2 -65 -6 0 -101 53 -106 59
-3 4 -18 13 -35 21 -16 8 -48 26 -70 40 -22 13 -51 31 -65 38 -14 7 -46 25
-72 40 -26 15 -88 51 -137 80 -50 28 -95 52 -101 52 -5 0 -10 5 -10 10 0 6 -7
10 -15 10 -8 0 -15 5 -15 10 0 6 -5 10 -10 10 -6 0 -46 21 -90 46 -72 42 -100
49 -100 23 0 -5 -18 -39 -40 -75 -22 -36 -40 -67 -40 -69 0 -2 -26 -47 -58
-102 -32 -54 -70 -118 -84 -143 -105 -184 -123 -216 -128 -220 -3 -3 -16 -25
-29 -50 -30 -56 -41 -71 -50 -66 -3 3 -27 7 -51 11 -25 3 -58 9 -75 12 -68 13
-368 5 -425 -12 -8 -2 -26 -6 -40 -9 -93 -17 -251 -67 -278 -88 -6 -6 -12 -8
-12 -4 0 3 -16 -3 -35 -14 -20 -11 -38 -20 -41 -20 -11 0 15 301 31 360 2 8 7
29 10 47 5 34 26 126 45 203 58 237 210 561 379 809 50 73 45 67 144 186 154
186 396 403 562 505 22 13 42 28 43 32 2 4 8 8 13 8 5 0 37 17 71 38 314 192
740 326 1133 358 38 3 70 6 71 7 5 5 276 -1 349 -7z m-1217 -3041 c-2 -1 -88
-57 -193 -123 -104 -67 -195 -126 -202 -132 -7 -5 -14 -10 -17 -10 -2 0 -31
-17 -63 -38 -32 -21 -84 -55 -115 -75 -55 -35 -57 -38 -46 -62 6 -14 15 -25
20 -25 4 0 8 -6 8 -12 0 -7 14 -31 30 -52 17 -22 30 -45 30 -52 0 -7 3 -14 8
-16 11 -5 52 -66 52 -78 0 -5 4 -10 9 -10 5 0 11 -8 14 -17 4 -10 44 -76 91
-148 47 -71 111 -171 142 -221 l58 -91 75 46 c42 25 78 48 81 51 3 3 37 25 75
50 39 24 120 76 180 115 61 39 128 82 150 95 22 13 45 28 50 32 29 24 138 88
142 85 6 -6 6 -107 0 -113 -3 -3 -1 -20 3 -39 4 -19 5 -36 2 -39 -3 -3 -5 -27
-4 -53 0 -27 2 -79 3 -116 0 -37 -1 -70 -4 -73 -2 -3 -1 -21 3 -40 4 -19 4
-36 0 -39 -4 -2 -6 -17 -3 -32 2 -16 3 -50 3 -78 -1 -27 -1 -57 -1 -65 2 -46
2 -67 1 -75 -2 -6 -2 -36 -1 -67 l1 -56 154 1 c85 1 152 0 150 -2 -7 -7 -30
-10 -134 -18 -202 -14 -422 -6 -570 22 -19 4 -44 8 -55 10 -80 13 -201 49
-273 82 -29 12 -56 23 -61 23 -11 0 -163 84 -205 113 -193 134 -338 323 -397
517 -28 92 -33 296 -9 360 1 3 3 10 4 15 4 22 50 122 68 149 82 124 205 212
368 264 74 24 112 30 225 38 44 4 81 7 82 8 1 1 19 0 38 -2 20 -2 35 -5 33 -7z
m3352 -936 c0 -10 -93 -57 -96 -48 -1 2 -11 -5 -23 -15 -12 -11 -21 -15 -21
-11 0 4 -9 0 -20 -10 -11 -10 -20 -15 -20 -12 0 8 -424 -205 -428 -215 -2 -4
-11 -8 -21 -8 -9 0 -22 -5 -29 -12 -7 -7 -12 -8 -12 -2 0 5 15 17 33 26 17 8
166 84 330 167 165 83 301 151 303 151 2 0 4 -5 4 -11z m-684 -338 c-7 -10
-172 -101 -183 -101 -7 0 175 107 185 109 2 1 1 -3 -2 -8z m-216 -116 c0 -2
-10 -9 -22 -15 -22 -11 -22 -10 -4 4 21 17 26 19 26 11z m-64 -40 c-11 -8 -25
-15 -30 -15 -6 1 0 7 14 15 32 19 40 18 16 0z m-46 -20 c0 -2 -10 -9 -22 -15
-22 -11 -22 -10 -4 4 21 17 26 19 26 11z m-74 -40 c-11 -8 -25 -15 -30 -15 -6
1 0 7 14 15 32 19 40 18 16 0z m-51 -35 c-3 -5 -12 -10 -18 -10 -7 0 -6 4 3
10 19 12 23 12 15 0z m-120 -60 c-3 -5 -12 -10 -18 -10 -7 0 -6 4 3 10 19 12
23 12 15 0z m-185 -95 c-7 -8 -17 -15 -23 -15 -6 0 -2 7 9 15 25 19 30 19 14
0z m-70 -35 c0 -5 -5 -10 -11 -10 -5 0 -7 5 -4 10 3 6 8 10 11 10 2 0 4 -4 4
-10z m-44 -25 c-11 -8 -25 -15 -30 -15 -6 1 0 7 14 15 32 19 40 18 16 0z m-46
-20 c0 -2 -10 -9 -22 -15 -22 -11 -22 -10 -4 4 21 17 26 19 26 11z m-80 -45
c0 -5 -8 -10 -17 -10 -15 0 -16 2 -3 10 19 12 20 12 20 0z m-66 -30 c-9 -9
-214 -112 -354 -177 -111 -52 -364 -165 -375 -168 -10 -2 -56 -21 -120 -49
-30 -14 -69 -15 -81 -4 -3 3 9 9 27 13 19 4 40 11 49 16 8 5 53 23 100 40 47
17 103 39 125 49 22 10 69 30 105 44 36 15 88 38 115 51 28 13 77 35 110 49
33 15 114 53 180 86 129 63 134 65 119 50z"/>
</g>
</svg>
