<?xml version="1.0" encoding="utf-8"?>
<!-- Generator: Adobe Illustrator 24.0.3, SVG Export Plug-In . SVG Version: 6.00 Build 0)  -->
<svg version="1.1" xmlns="http://www.w3.org/2000/svg" xmlns:xlink="http://www.w3.org/1999/xlink" x="0px" y="0px"
	 viewBox="0 0 706.6 341.8" style="enable-background:new 0 0 706.6 341.8;" xml:space="preserve">
<style type="text/css">
	.st0{clip-path:url(#SVGID_2_);fill:url(#SVGID_3_);}
	.st1{clip-path:url(#SVGID_5_);fill:url(#SVGID_6_);}
	.st2{fill:#FFFFFF;}
	.st3{clip-path:url(#SVGID_8_);fill:url(#SVGID_9_);}
	.st4{clip-path:url(#SVGID_11_);fill:url(#SVGID_12_);}
	.st5{filter:url(#Adobe_OpacityMaskFilter);}
	.st6{clip-path:url(#SVGID_14_);fill:url(#SVGID_16_);}
	.st7{clip-path:url(#SVGID_14_);mask:url(#SVGID_15_);fill:url(#SVGID_17_);}
	.st8{filter:url(#Adobe_OpacityMaskFilter_1_);}
	.st9{clip-path:url(#SVGID_19_);fill:url(#SVGID_21_);}
	.st10{clip-path:url(#SVGID_19_);mask:url(#SVGID_20_);fill:url(#SVGID_22_);}
	.st11{fill:#414042;}
</style>
<g id="Layer_1">
	<g>
		<g>
			<defs>
				<path id="SVGID_1_" d="M143.2,277.3c-16.3-6.2-31.4-15.6-44.1-27.6c-12.7-11.9-23-26.4-30.2-42.3c-7.2-15.9-11.3-33.2-11.8-50.6
					c-0.6-17.4,2.4-34.9,8.6-51.2C72,89.3,81.4,74.3,93.5,61.7c12-12.6,26.6-22.8,42.5-29.8c16-7,33.3-10.9,50.7-11.3
					c17.4-0.4,34.9,2.6,51.2,8.8c16.3,6.2,31.4,15.6,44.1,27.5c12.7,11.9,23.1,26.4,30.3,42.2c7.2,15.9,11.3,33.2,11.9,50.6
					c0.6,17.4-2.4,35-8.6,51.3c-6.2,16.3-15.7,31.4-27.8,44c-12.1,12.6-26.6,22.8-42.6,29.8c-16,7-33.3,10.9-50.8,11.3
					c-1.1,0-2.1,0-3.2,0C174.9,286.2,158.6,283.1,143.2,277.3 M186.6,17c-17.9,0.2-35.8,3.8-52.4,10.9C117.7,35,102.5,45.4,90,58.4
					c-12.5,13-22.4,28.6-28.9,45.5c-6.4,16.9-9.4,35.1-8.8,53.1C53,175,57.4,192.9,65,209.2c7.6,16.3,18.5,31,31.8,43.1
					c13.2,12.1,28.8,21.4,45.5,27.6c16.7,6.1,34.6,8.9,52.3,8.2c8.8-0.3,17.6-1.6,26.2-3.6c8.6-2,16.9-5,25-8.5
					c16.1-7.2,30.6-17.6,42.6-30.4c12.1-12.7,21.6-27.9,27.8-44.3c6.3-16.4,9.4-34,8.8-51.5c-0.5-17.5-4.4-35-11.5-51.1
					c-3.6-8-7.9-15.8-12.9-23c-5-7.2-10.8-14-17.1-20.2c-12.7-12.3-27.9-22.1-44.4-28.7C222.8,20.4,205.4,17,188,17
					C187.5,17,187.1,17,186.6,17"/>
			</defs>
			<clipPath id="SVGID_2_">
				<use xlink:href="#SVGID_1_"  style="overflow:visible;"/>
			</clipPath>
			
				<linearGradient id="SVGID_3_" gradientUnits="userSpaceOnUse" x1="602.6428" y1="578.3792" x2="603.4717" y2="578.3792" gradientTransform="matrix(307.6869 117.5339 117.5339 -307.6869 -253341.5156 107233.6172)">
				<stop  offset="0" style="stop-color:#00A5E5"/>
				<stop  offset="5.376340e-03" style="stop-color:#00A5E5"/>
				<stop  offset="0.5403" style="stop-color:#007BC2"/>
				<stop  offset="1" style="stop-color:#1557A8"/>
			</linearGradient>
			<polygon class="st0" points="86.6,-74.3 416.1,51.6 290.6,380 -38.9,254.2 			"/>
		</g>
		<g>
			<defs>
				<polygon id="SVGID_4_" points="168.3,81.2 168.3,128.1 127.6,104.6 105.5,143 147.9,167.5 106.6,193.9 130.5,231.2 168.3,207 
					168.3,251.8 212.6,251.8 212.6,204.9 253.2,228.4 275.4,190 233,165.5 274.2,139.1 250.3,101.8 212.6,126 212.6,81.2 				"/>
			</defs>
			<clipPath id="SVGID_5_">
				<use xlink:href="#SVGID_4_"  style="overflow:visible;"/>
			</clipPath>
			
				<linearGradient id="SVGID_6_" gradientUnits="userSpaceOnUse" x1="601.0613" y1="579.4847" x2="601.89" y2="579.4847" gradientTransform="matrix(205.0186 0 0 -205.0186 -123123.2734 118971.6484)">
				<stop  offset="0" style="stop-color:#00A5E5"/>
				<stop  offset="5.376340e-03" style="stop-color:#00A5E5"/>
				<stop  offset="0.5403" style="stop-color:#007BC2"/>
				<stop  offset="1" style="stop-color:#1557A8"/>
			</linearGradient>
			<rect x="105.5" y="81.2" class="st1" width="169.9" height="170.6"/>
		</g>
		<path class="st2" d="M207,159.8c-2.6-2.3-5.6-3.4-8.4-4.1c-2.8-0.7-5.6-0.9-8.3-1c-2.6-0.1-4.7-0.2-7-0.6
			c-4.3-0.7-8.4-2.5-9.9-4.9c-0.8-1.1-0.8-2.3-0.7-4c0.2-1.5,0.5-3.5,1.4-4.2c4-4.4,5.8-1.1,8.9-1.3c1.5-0.1,4.2-0.6,5.5-1.8
			c0-0.7,0-1.3,0-2c-1.5-1.8-4.1-3.4-5.8-3.4c-3.7,0.4-8.3,0.5-12.8,4.1c-2.3,1.8-3.8,4.8-4.2,7.7c-0.2,1.5-0.2,2.6,0,4.3
			c0.2,1.6,0.8,3.2,1.7,4.5c7.9,10.4,21.2,7.4,29.4,9.1c4.5,0.9,7.9,3.1,7.9,6.9c0.4,2.3-3.4,4.7-7.6,5.6c0,0,0,0,0.1,0
			c-0.6,0.2-1.2,0.3-1.7,0.4c-3.7,0.4-7.6,0.8-11.3,1.5c-1.6,0.3-5.5,1.7-6.5,3.5c-1.8,2.2-2.7,5-2.6,7.5c0,1.7,0.6,3.7,1.7,5.1
			c1.1,1.4,2.6,2.4,4,3c2.8,1.2,5.6,1.5,8.3,1.5c2.6-0.1,4.5-0.1,6.3,0.7c1.7,0.7,2.8,2.1,3.2,3.9c0.5,1.7-0.1,3.1-1.4,4.4
			c-1.1,1-2.5,1.7-4,2.1l-0.1,0c-0.1,0-0.1,0.1-0.2,0.1c0,0,0,0,0,0c0,0,0,0,0,0c-0.4,0.2-0.7,0.4-1.1,0.5c0-0.4,0-0.8,0-1.3h0.1
			c0.1-3.2,0.1-6.5,0.2-10H189c0.1,3.4,0.1,6.8,0.2,10h0.1c0,0.7,0,1.4,0,2c-0.1,0-0.3,0.1-0.4,0.1c-2,0.7-3.1,1.3-4.2,3.2
			c-0.9,1.6-1.3,3.4-0.6,5.2c0.8,1.7,2.1,2.3,3.6,3.1c2.2,1.3,0.1,1.8-0.9,3.1c0,0,0,0,0.1,0c-0.1,0.1-0.1,0.2-0.2,0.2
			c-1.1,1.2-1.6,2.7-1.6,4.1c0,1.3,0.2,2.4,0.5,3.4c0.7,2.1,2.5,3,3.5,3c0.3,0,0.5,0,0.7,0c0.2,4.6,0.5,7.2,0.7,7.1
			c0.3-0.1,0.5-6.5,0.8-16.5h0c0-0.5,0-1,0-1.5c2.1-1,1.7-2.5,0.1-3.4c0-2.9,0.1-5.9,0.2-9c0.1,0,0.1,0,0.2,0
			c4.6-0.3,5.5-1.2,6.6-1.6c0,0,0,0-0.1-0.1c0.1-0.1,0.3-0.2,0.4-0.2c2.2-1.4,4.4-4.4,4-7.8c-0.2-2.8-1.8-6-4.6-7.7
			c-2.7-1.7-5.8-2.1-8.5-2c-2.2,0-4.6-0.3-6.5-1c-2-0.8-3-1.9-3.1-3.3c-0.1-1.7,0.6-3.8,1.8-4.9c0.3-0.2,0.5-0.5,0.9-0.7l0,0
			c1.5-0.8,3.2-0.9,4.9-1.2c1.8-0.3,3.7-0.5,5.6-0.7c5.4-0.3,8.9-1.4,11-2.4c0,0,0,0,0,0c0,0,0,0,0,0c0.2-0.1,0.4-0.2,0.6-0.3
			c1.2-0.6,1.7-1.1,1.8-1.2c0,0,0,0,0,0c0.6-0.5,1.2-1,1.7-1.6c1.2-1.4,2.1-3.5,2.2-5.5C211.2,166,209.7,162.1,207,159.8 M182.9,134
			c0.3,0,0.6,0.3,0.6,0.6c0,0.3-0.3,0.6-0.6,0.6c-0.3,0-0.6-0.3-0.6-0.6C182.3,134.2,182.5,134,182.9,134 M186.8,230.9
			c-0.3-1.8-0.1-4.1,1.9-5.5c0.1-0.1,0.2-0.2,0.4-0.3h0c0.1,0,0.3-0.1,0.5-0.1c0,0.1,0,0.3,0,0.4h0c0.1,3.5,0.2,6.5,0.3,9.1
			C189,234.2,187.3,233.5,186.8,230.9 M189.5,219.6c-2.5-1.3-5.6-3.4-2.9-6.2c0.8-0.8,1.7-1.2,2.7-1.4
			C189.4,214.5,189.5,217.1,189.5,219.6"/>
		<path class="st2" d="M190.7,117.1c-1.8,0.1-3.4-1-3.9-0.5c-0.6,0.4,0.9,3.3,3.9,3.3c3.1,0,4.5-2.9,3.9-3.3
			C194.1,116.1,192.5,117.2,190.7,117.1"/>
		<path class="st2" d="M190.7,116.6c3.1,0,5.7-2.5,5.7-5.7s-2.5-5.7-5.7-5.7c-3.1,0-5.7,2.5-5.7,5.7S187.5,116.6,190.7,116.6"/>
		<path class="st2" d="M188.7,137.6c-0.1,0.1-0.2,0.2-0.3,0.3c0,5,0,10.1,0.1,15.4h4.2c0-6.5,0.1-12.7,0.1-18.7l-1.9-6.5l2-3.7
			c0-0.9,0-1.7,0-2.5c0-1.1-1-1.6-2.3-1.6c-1.2,0-2.3,0.3-2.3,1.6c0,0.8,0,1.6,0,2.5l2,3.6l-1.9,6.6c0,0.4,0,0.8,0,1.2
			c0.2,0.3,0.4,0.5,0.6,0.8C189,137,188.9,137.4,188.7,137.6"/>
		<path class="st2" d="M192.6,162.7h-4c0,3.7,0.1,7.5,0.1,11.3h3.7C192.5,170.2,192.6,166.4,192.6,162.7"/>
		<path class="st2" d="M192.2,191.8c0.1-3.3,0.1-6.6,0.2-9.9h-3.5c0,3.3,0.1,6.7,0.1,9.9H192.2z"/>
		<g>
			<defs>
				<path id="SVGID_7_" d="M74.3,299.8C50,295.1,29.2,280.7,15.4,261c37.7,73.3,117.4,61,181,34.3c-22.6,12.9-43.9,21.9-63.6,27.1
					c22.8,4.3,46.9,3.9,70.9-1.8c57.8-13.8,101.5-55.6,120.4-107.5C247.9,242.2,158.1,316.1,74.3,299.8 M26.7,177.7
					c-26.8,48.5,7,113.8,64.7,119.8c58.3,6.1,123.7-30,173.4-56.8c43.6-23.5,86-45,132.7-44c-87.7-12.7-130.4,50-222.6,56.2
					c-45.9,3.1-71.4-18.5-76.8-40c-6-24.2,13.5-48.4,58.2-37.6c-19.4-24.4-43.3-34.8-65.8-34.8C63.9,140.4,39.4,154.8,26.7,177.7"/>
			</defs>
			<clipPath id="SVGID_8_">
				<use xlink:href="#SVGID_7_"  style="overflow:visible;"/>
			</clipPath>
			
				<radialGradient id="SVGID_9_" cx="603.9069" cy="579.5248" r="0.829" gradientTransform="matrix(608.4333 -182.5391 -182.5391 -608.4333 -261765.625 463105.6562)" gradientUnits="userSpaceOnUse">
				<stop  offset="0" style="stop-color:#FFFFFF"/>
				<stop  offset="0.5" style="stop-color:#26B3E8"/>
				<stop  offset="1" style="stop-color:#3D419A"/>
			</radialGradient>
			<polygon class="st3" points="-53.4,156.4 364.7,31 450.9,318.3 32.8,443.8 			"/>
		</g>
		<g>
			<defs>
				<path id="SVGID_10_" d="M68.1,191.2C55.4,223.4,85,269.5,174.4,259c45.9-5.4,81-25.9,113.6-41.4c-33.2,14.9-66.9,32.1-113,35.2
					c-45.9,3.1-71.4-18.5-76.8-40c-6-24.2,13.5-48.4,58.2-37.6c-13.5-9.4-27.4-13.4-40-13.4C93.6,161.8,74.7,174.6,68.1,191.2"/>
			</defs>
			<clipPath id="SVGID_11_">
				<use xlink:href="#SVGID_10_"  style="overflow:visible;"/>
			</clipPath>
			
				<radialGradient id="SVGID_12_" cx="603.8741" cy="581.0384" r="0.8284" gradientTransform="matrix(213.7462 -276.2356 -276.2356 -213.7462 31515.4004 291294.4688)" gradientUnits="userSpaceOnUse">
				<stop  offset="0" style="stop-color:#FFFFFF"/>
				<stop  offset="0.5" style="stop-color:#26B3E8"/>
				<stop  offset="1" style="stop-color:#3D419A"/>
			</radialGradient>
			<polygon class="st4" points="3.2,229.2 142.5,49.2 340.2,202.1 200.9,382.1 			"/>
		</g>
		<g>
			<defs>
				<path id="SVGID_13_" d="M50.3,159.4c-20.1,14.9-29.6,39.1-26.6,63.8C28,258.6,56.2,288,92,291.7c25.6,2.7,52.9-3.2,79.6-12.8
					C69.7,304.3,33.3,243.6,41.8,198.6c5.2-27.8,44.8-56.7,86-41.6c-11.6-7.1-24.6-10.8-37.5-10.8C76.3,146.2,62.4,150.5,50.3,159.4
					"/>
			</defs>
			<clipPath id="SVGID_14_">
				<use xlink:href="#SVGID_13_"  style="overflow:visible;"/>
			</clipPath>
			<defs>
				<filter id="Adobe_OpacityMaskFilter" filterUnits="userSpaceOnUse" x="-3.8" y="119.1" width="199.9" height="207.9">
					<feColorMatrix  type="matrix" values="1 0 0 0 0  0 1 0 0 0  0 0 1 0 0  0 0 0 1 0"/>
				</filter>
			</defs>
			<mask maskUnits="userSpaceOnUse" x="-3.8" y="119.1" width="199.9" height="207.9" id="SVGID_15_">
				<g class="st5">
					
						<linearGradient id="SVGID_16_" gradientUnits="userSpaceOnUse" x1="600.8126" y1="578.9045" x2="601.6413" y2="578.9045" gradientTransform="matrix(184.1836 28.4268 28.4268 -184.1836 -127176.6094 89744.4922)">
						<stop  offset="0" style="stop-color:#FFFFFF"/>
						<stop  offset="1" style="stop-color:#000000"/>
					</linearGradient>
					<polygon class="st6" points="24.2,119.1 196.1,145.7 168.1,327.1 -3.8,300.5 					"/>
				</g>
			</mask>
			
				<linearGradient id="SVGID_17_" gradientUnits="userSpaceOnUse" x1="600.8118" y1="578.9033" x2="601.6405" y2="578.9033" gradientTransform="matrix(184.1836 28.4268 28.4268 -184.1836 -127176.5781 89744.2656)">
				<stop  offset="0" style="stop-color:#FFFFFF"/>
				<stop  offset="1" style="stop-color:#FFFFFF"/>
			</linearGradient>
			<polygon class="st7" points="24.2,119.1 196.1,145.7 168.1,327.1 -3.8,300.5 			"/>
		</g>
		<g>
			<defs>
				<path id="SVGID_18_" d="M103.1,301.8c12.6,4.8,25.9,8,39.6,9.4c16.5-3.8,33-9.4,48.4-15.9c-11.5,6.6-22.7,12.1-33.4,16.7
					c12.4,0.1,25-1.3,37.7-4.4c48.8-11.7,86.8-45,106.2-87.3C239.7,248.1,170.4,297.5,103.1,301.8"/>
			</defs>
			<clipPath id="SVGID_19_">
				<use xlink:href="#SVGID_18_"  style="overflow:visible;"/>
			</clipPath>
			<defs>
				<filter id="Adobe_OpacityMaskFilter_1_" filterUnits="userSpaceOnUse" x="59.5" y="125.9" width="285.7" height="280.7">
					<feColorMatrix  type="matrix" values="1 0 0 0 0  0 1 0 0 0  0 0 1 0 0  0 0 0 1 0"/>
				</filter>
			</defs>
			<mask maskUnits="userSpaceOnUse" x="59.5" y="125.9" width="285.7" height="280.7" id="SVGID_20_">
				<g class="st8">
					
						<linearGradient id="SVGID_21_" gradientUnits="userSpaceOnUse" x1="612.0266" y1="586.0104" x2="612.8553" y2="586.0104" gradientTransform="matrix(-50.6246 -69.3219 -69.3219 50.6246 71861.4219 13097.9424)">
						<stop  offset="0" style="stop-color:#FFFFFF"/>
						<stop  offset="1" style="stop-color:#000000"/>
					</linearGradient>
					<polygon class="st9" points="172.1,406.6 59.5,252.3 232.5,125.9 345.2,280.2 					"/>
				</g>
			</mask>
			
				<linearGradient id="SVGID_22_" gradientUnits="userSpaceOnUse" x1="612.0266" y1="586.0104" x2="612.8553" y2="586.0104" gradientTransform="matrix(-50.6246 -69.3219 -69.3219 50.6246 71861.4219 13097.9424)">
				<stop  offset="0" style="stop-color:#FFFFFF"/>
				<stop  offset="1" style="stop-color:#FFFFFF"/>
			</linearGradient>
			<polygon class="st10" points="172.1,406.6 59.5,252.3 232.5,125.9 345.2,280.2 			"/>
		</g>
		<g>
			<path class="st11" d="M375.5,167.5l7.3,7.6c-12.8,10-25.8,15-39,15c-14.2,0-25.4-4.9-33.5-14.7c-8.1-9.8-10.9-21.6-8.5-35.3
				c2.4-13.6,9.4-25.3,20.9-35.2c11.6-9.9,24.4-14.8,38.7-14.8c13.2,0,24.5,5,33.7,15.1l-9.9,7.6c-7.6-7.9-16.1-11.9-25.7-11.9
				c-10.4,0-20.1,3.8-29,11.4c-8.9,7.6-14.4,16.9-16.3,27.8c-1.9,11.1,0.2,20.4,6.5,27.9c6.3,7.6,14.6,11.4,25.1,11.4
				C355.2,179.4,365.2,175.5,375.5,167.5z"/>
			<path class="st11" d="M406.5,156.1l-0.1,0.2c-1.2,6.6,0.1,12.2,3.8,16.7c3.7,4.5,8.6,6.7,14.7,6.7c6.1,0,11.8-2.3,17.2-6.9
				c0.8-0.6,2.2-2.1,4.4-4.3l10.9,4.1c-2.2,2.9-4.7,5.5-7.3,7.7c-8.1,6.9-17.1,10.4-27.1,10.4c-9.8,0-17.6-3.4-23.2-10.2
				c-5.6-6.8-7.6-14.9-6-24.2c1.7-9.4,6.5-17.5,14.5-24.3s16.9-10.2,26.8-10.2c9.9,0,17.7,3.4,23.4,10.3c4.8,6,6.4,14,4.7,23.9
				H406.5z M410.6,145.4h40.7c-1.5-8.4-7.5-12.6-18.1-12.6C422.6,132.7,415,137,410.6,145.4z"/>
			<path class="st11" d="M496.9,91.3l-17.3,97.8h-12.3l17.3-97.8H496.9z"/>
			<path class="st11" d="M515.2,137.9l-9,51.2h-12.3l10.9-62.1h7.7c3.8-2.2,8.1-3.3,13.1-3.3c5.8,0,10.3,1.5,13.6,4.4
				c4.2-2.9,9.2-4.4,15-4.4c5.8,0,10.3,2,13.6,6c2.9,3.7,4.1,8,3.4,12.9l-8.2,46.6h-12.3l8.7-49.2c0.1-3.8-2.3-5.6-7.1-5.6
				c-4,0-7,1.8-9.1,5.3l-8.8,49.6h-12.3l8.7-49.2h-0.1c0.1-3.8-2.2-5.6-7-5.6C520.3,134.2,517.5,135.5,515.2,137.9z"/>
			<path class="st11" d="M644.4,189.1h-12.3l1.9-10.9c-6.3,8.3-14.4,12.5-24.3,12.5c-9.8,0-17.6-3.4-23.2-10.2
				c-5.6-6.8-7.6-14.9-6-24.2c1.7-9.4,6.5-17.5,14.5-24.3s16.9-10.2,26.8-10.2c9.9,0,16.6,4.1,19.9,12.4l1.3-7.3h12.3L644.4,189.1z
				 M636.9,161.2l1.8-9.9c0-4.5-1.4-8.4-4.1-11.6c-3.8-4.6-8.7-6.9-14.8-6.9c-6.1,0-11.8,2.3-17.1,6.8c-5.3,4.5-8.5,10.1-9.7,16.8
				c-1.2,6.6,0.1,12.2,3.8,16.7c3.7,4.5,8.6,6.7,14.7,6.7c6.1,0,11.8-2.3,17.2-6.9C632.6,169.6,635.3,165.7,636.9,161.2z"/>
			<path class="st11" d="M694.9,136.2c-5.8,0.9-10.5,3.1-14.2,6.7c-3.7,3.6-6,8.1-7,13.6l-5.8,32.6h-12.3l10.9-62.1h12.3l-1.6,8.8
				c2.7-4.8,7.2-8.2,13.5-10.1L694.9,136.2z"/>
		</g>
		<g>
			<path class="st11" d="M455.9,207.3h4l-1.1,6.1c0.9-1,1.9-2,3-2.9c5.5-4.7,11.7-7.1,18.4-7.1c6.7,0,12.1,2.4,16,7.1
				c3.9,4.7,5.3,10.5,4.2,17.2c-1.1,6.7-4.4,12.4-10,17.2c-5.6,4.8-11.7,7.1-18.4,7.1s-12.1-2.4-16-7.2c-0.8-0.9-1.4-1.9-2-2.9
				l-4.3,25.4h-4L455.9,207.3z M457.2,223.6l-1.4,8.3c0.1,3.8,1.4,7.2,3.8,10c3.3,3.9,7.7,5.9,13.2,5.9c5.5,0,10.6-2,15.2-5.9
				c4.6-3.9,7.3-8.7,8.3-14.2c0.9-5.5-0.2-10.3-3.5-14.2c-3.3-3.9-7.7-5.9-13.2-5.9c-5.6,0-10.6,2-15.2,5.9
				C461,216.4,458.6,219.8,457.2,223.6z"/>
			<path class="st11" d="M516.3,179.9h4l-5,29.6c3.9-3.2,8.2-4.9,12.9-4.9c5.1,0,9,1.6,11.7,4.8c2.7,3.2,3.7,7.3,2.9,12.2l-4.9,29.1
				h-4l4.8-28.7c0.6-3.7-0.2-6.9-2.4-9.5c-2.2-2.6-5.2-3.9-8.8-3.9c-3.7,0-7.1,1.3-10.1,3.9c-1.4,1.2-2.5,2.4-3.3,3.7l-5.8,34.6h-4
				L516.3,179.9z"/>
			<path class="st11" d="M594.6,250.8h-4l1.5-8.9c-0.9,1-1.9,2-3,3c-5.6,4.8-11.7,7.2-18.5,7.2c-6.7,0-12-2.4-16-7.1
				c-4-4.8-5.4-10.5-4.3-17.2c1.1-6.8,4.5-12.5,10.1-17.3c5.6-4.7,11.7-7.1,18.4-7.1c6.8,0,12.1,2.4,16,7.1c0.7,0.9,1.4,1.9,2,3
				l1.1-6.2h4L594.6,250.8z M593.8,231.6l1.4-7.9c-0.1-3.9-1.4-7.3-3.8-10.3c-3.3-3.9-7.7-5.9-13.2-5.9s-10.6,2-15.2,5.9
				c-4.6,3.9-7.4,8.7-8.3,14.2c-0.9,5.6,0.3,10.3,3.6,14.2c3.3,3.9,7.7,5.9,13.2,5.9c5.5,0,10.6-2,15.2-5.9
				C590,238.9,592.4,235.5,593.8,231.6z"/>
			<path class="st11" d="M626.1,210.8c-2.9,0.4-6.1,2.2-9.3,5.4c-3.2,3.2-5.1,6.4-5.7,9.6l-4.2,25h-4l7.3-43.5h4l-1.6,9.4
				c2.4-4.4,6.4-7.6,11.9-9.8L626.1,210.8z"/>
			<path class="st11" d="M631.6,207.3h4l-0.2,1.1c2.9-2.4,6-3.6,9.5-3.6c3.6,0,6.4,1.3,8.5,3.8c0.6,0.7,1,1.4,1.4,2.2
				c0.7-0.8,1.4-1.5,2.2-2.2c2.9-2.5,6.2-3.8,9.8-3.8c3.6,0,6.4,1.3,8.5,3.8c2,2.4,2.7,5.4,2.3,8.7l-5.6,33.6h-4l5.6-33.6h0
				c0.3-2.3-0.2-4.3-1.6-5.9c-1.5-1.7-3.5-2.6-5.9-2.6c-2.5,0-4.7,0.9-6.8,2.6c-2,1.7-3.3,3.9-3.7,6.5l-5.5,33h-4l5.6-33.6h0
				c0.3-2.3-0.3-4.3-1.7-5.9c-1.5-1.7-3.5-2.6-5.9-2.6c-2.4,0-4.7,0.9-6.7,2.6c-1.8,1.5-3,3.3-3.6,5.5l-5.7,34h-4L631.6,207.3z"/>
		</g>
	</g>
</g>
<g id="Layer_2">
</g>
</svg>
